<?xml version="1.0" encoding="UTF-8" standalone="no"?>
<!DOCTYPE svg PUBLIC "-//W3C//DTD SVG 1.0//EN" "http://www.w3.org/TR/2001/PR-SVG-20010719/DTD/svg10.dtd">
<svg width="40cm" height="35cm" viewBox="298 178 783 683" xmlns="http://www.w3.org/2000/svg" xmlns:xlink="http://www.w3.org/1999/xlink">
  <g>
    <rect style="fill: #ffffff" x="300" y="180" width="780" height="680"/>
    <rect style="fill: none; fill-opacity:0; stroke-width: 2; stroke: #ffffff" x="300" y="180" width="780" height="680"/>
  </g>
  <g>
    <rect style="fill: #e7f8c1" x="431.249" y="205.476" width="458.806" height="628.129"/>
    <rect style="fill: none; fill-opacity:0; stroke-width: 2; stroke: #008000" x="431.249" y="205.476" width="458.806" height="628.129"/>
  </g>
  <g>
    <rect style="fill: #f5dfdb" x="733.151" y="690.086" width="141.27" height="128.869"/>
    <rect style="fill: none; fill-opacity:0; stroke-width: 2; stroke: #ff0000" x="733.151" y="690.086" width="141.27" height="128.869"/>
  </g>
  <g>
    <rect style="fill: #f5dfdb" x="733.067" y="426.003" width="141.27" height="250.586"/>
    <rect style="fill: none; fill-opacity:0; stroke-width: 2; stroke: #ff0000" x="733.067" y="426.003" width="141.27" height="250.586"/>
  </g>
  <g>
    <rect style="fill: #ffc0cb" x="460" y="732.288" width="80" height="36" rx="10" ry="10"/>
    <rect style="fill: none; fill-opacity:0; stroke-width: 2; stroke: #ff0000" x="460" y="732.288" width="80" height="36" rx="10" ry="10"/>
    <text font-size="12.8" style="fill: #000000;text-anchor:middle;font-family:sans-serif;font-style:normal;font-weight:normal" x="500" y="754.188">
      <tspan x="500" y="754.188">Balsuoja</tspan>
    </text>
  </g>
  <g>
    <rect style="fill: #ffc0cb" x="600" y="732.288" width="80" height="36" rx="10" ry="10"/>
    <rect style="fill: none; fill-opacity:0; stroke-width: 2; stroke: #ff0000" x="600" y="732.288" width="80" height="36" rx="10" ry="10"/>
    <text font-size="12.8" style="fill: #000000;text-anchor:middle;font-family:sans-serif;font-style:normal;font-weight:normal" x="640" y="754.188">
      <tspan x="640" y="754.188">Rinkimai</tspan>
    </text>
  </g>
  <g>
    <rect style="fill: #90ee90" x="460" y="361.688" width="80" height="36" rx="10" ry="10"/>
    <rect style="fill: none; fill-opacity:0; stroke-width: 2; stroke: #008000" x="460" y="361.688" width="80" height="36" rx="10" ry="10"/>
    <text font-size="12.8" style="fill: #000000;text-anchor:middle;font-family:sans-serif;font-style:normal;font-weight:normal" x="500" y="383.588">
      <tspan x="500" y="383.588">Domisi</tspan>
    </text>
  </g>
  <g>
    <rect style="fill: #90ee90" x="600" y="361.688" width="80" height="36" rx="10" ry="10"/>
    <rect style="fill: none; fill-opacity:0; stroke-width: 2; stroke: #008000" x="600" y="361.688" width="80" height="36" rx="10" ry="10"/>
    <text font-size="12.8" style="fill: #000000;text-anchor:middle;font-family:sans-serif;font-style:normal;font-weight:normal" x="640" y="383.588">
      <tspan x="640" y="383.588">Tema</tspan>
    </text>
  </g>
  <g>
    <rect style="fill: #ffffaf" x="753.9" y="361.688" width="96.4" height="36" rx="10" ry="10"/>
    <rect style="fill: none; fill-opacity:0; stroke-width: 2; stroke: #ffa500" x="753.9" y="361.688" width="96.4" height="36" rx="10" ry="10"/>
    <text font-size="12.8" style="fill: #000000;text-anchor:middle;font-family:sans-serif;font-style:normal;font-weight:normal" x="802.1" y="383.588">
      <tspan x="802.1" y="383.588">Komentuoja</tspan>
    </text>
  </g>
  <g>
    <rect style="fill: #ffffaf" x="900" y="360" width="150.95" height="36" rx="10" ry="10"/>
    <rect style="fill: none; fill-opacity:0; stroke-width: 2; stroke: #ffa500" x="900" y="360" width="150.95" height="36" rx="10" ry="10"/>
    <text font-size="12.8" style="fill: #000000;text-anchor:middle;font-family:sans-serif;font-style:normal;font-weight:normal" x="975.475" y="381.9">
      <tspan x="975.475" y="381.9">Visuomenės veikėjai</tspan>
    </text>
  </g>
  <g>
    <rect style="fill: #ffc0cb" x="935.476" y="590" width="80" height="36" rx="10" ry="10"/>
    <rect style="fill: none; fill-opacity:0; stroke-width: 2; stroke: #ff0000" x="935.476" y="590" width="80" height="36" rx="10" ry="10"/>
    <text font-size="12.8" style="fill: #000000;text-anchor:middle;font-family:sans-serif;font-style:normal;font-weight:normal" x="975.476" y="611.9">
      <tspan x="975.476" y="611.9">Išrinktieji</tspan>
    </text>
  </g>
  <g>
    <line style="fill: none; fill-opacity:0; stroke-width: 1; stroke: #000000" x1="380.657" y1="529.005" x2="483.422" y2="400.429"/>
    <polyline style="fill: none; fill-opacity:0; stroke-width: 1; stroke: #000000" points="481.783,410.489 484.12,399.556 473.971,404.246 "/>
  </g>
  <g>
    <line style="fill: none; fill-opacity:0; stroke-width: 1; stroke: #000000" x1="365.475" y1="566" x2="458.895" y2="730.344"/>
    <polyline style="fill: none; fill-opacity:0; stroke-width: 1; stroke: #000000" points="450.159,725.093 459.447,731.316 458.852,720.152 "/>
  </g>
  <g>
    <line style="fill: none; fill-opacity:0; stroke-width: 1; stroke: #000000" x1="411.956" y1="548" x2="456.768" y2="548"/>
    <polyline style="fill: none; fill-opacity:0; stroke-width: 1; stroke: #000000" points="447.886,553 457.886,548 447.886,543 "/>
  </g>
  <g>
    <line style="fill: none; fill-opacity:0; stroke-width: 1; stroke: #000000" x1="540" y1="548" x2="597.764" y2="548"/>
    <polyline style="fill: none; fill-opacity:0; stroke-width: 1; stroke: #000000" points="588.882,553 598.882,548 588.882,543 "/>
  </g>
  <g>
    <line style="fill: none; fill-opacity:0; stroke-width: 1; stroke: #000000" x1="540.742" y1="750.288" x2="597.022" y2="750.288"/>
    <polyline style="fill: none; fill-opacity:0; stroke-width: 1; stroke: #000000" points="588.14,755.288 598.14,750.288 588.14,745.288 "/>
  </g>
  <g>
    <line style="fill: none; fill-opacity:0; stroke-width: 1; stroke: #000000" x1="540.742" y1="379.688" x2="597.022" y2="379.688"/>
    <polyline style="fill: none; fill-opacity:0; stroke-width: 1; stroke: #000000" points="588.14,384.688 598.14,379.688 588.14,374.688 "/>
  </g>
  <g>
    <line style="fill: none; fill-opacity:0; stroke-width: 1; stroke: #000000" x1="898.998" y1="379.031" x2="852.536" y2="379.658"/>
    <polyline style="fill: none; fill-opacity:0; stroke-width: 1; stroke: #000000" points="861.35,374.539 851.418,379.673 861.484,384.538 "/>
  </g>
  <g>
    <line style="fill: none; fill-opacity:0; stroke-width: 1; stroke: #000000" x1="752.898" y1="379.688" x2="683.246" y2="379.688"/>
    <polyline style="fill: none; fill-opacity:0; stroke-width: 1; stroke: #000000" points="692.128,374.688 682.128,379.688 692.128,384.688 "/>
  </g>
  <g>
    <line style="fill: none; fill-opacity:0; stroke-width: 1; stroke: #000000" x1="640.089" y1="529.005" x2="640.013" y2="400.919"/>
    <polyline style="fill: none; fill-opacity:0; stroke-width: 1; stroke: #000000" points="645.018,409.798 640.012,399.801 635.018,409.804 "/>
  </g>
  <g>
    <rect style="fill: #90ee90" x="600" y="300" width="80" height="36" rx="10" ry="10"/>
    <rect style="fill: none; fill-opacity:0; stroke-width: 2; stroke: #008000" x="600" y="300" width="80" height="36" rx="10" ry="10"/>
    <text font-size="12.8" style="fill: #000000;text-anchor:middle;font-family:sans-serif;font-style:normal;font-weight:normal" x="640" y="321.9">
      <tspan x="640" y="321.9">Sritis</tspan>
    </text>
  </g>
  <g>
    <line style="fill: none; fill-opacity:0; stroke-width: 1; stroke: #000000" x1="640" y1="360.697" x2="640" y2="339.227"/>
    <polyline style="fill: none; fill-opacity:0; stroke-width: 1; stroke: #000000" points="645,348.109 640,338.109 635,348.109 "/>
  </g>
  <g>
    <line style="fill: none; fill-opacity:0; stroke-width: 1; stroke: #000000" x1="540.742" y1="361.736" x2="597.212" y2="336.854"/>
    <polyline style="fill: none; fill-opacity:0; stroke-width: 1; stroke: #000000" points="591.1,345.011 598.235,336.403 587.068,335.86 "/>
  </g>
  <g>
    <line style="fill: none; fill-opacity:0; stroke-width: 1; stroke: #000000" x1="938.883" y1="589.005" x2="840.677" y2="538.026"/>
    <polyline style="fill: none; fill-opacity:0; stroke-width: 1; stroke: #000000" points="850.864,537.68 839.685,537.51 846.257,546.555 "/>
  </g>
  <g>
    <line style="fill: none; fill-opacity:0; stroke-width: 1; stroke: #000000" x1="761.106" y1="525.592" x2="683.402" y2="539.981"/>
    <polyline style="fill: none; fill-opacity:0; stroke-width: 1; stroke: #000000" points="691.225,533.447 682.302,540.185 693.046,543.28 "/>
  </g>
  <g>
    <line style="fill: none; fill-opacity:0; stroke-width: 1; stroke: #000000" x1="934.481" y1="600.906" x2="845.298" y2="585.475"/>
    <polyline style="fill: none; fill-opacity:0; stroke-width: 1; stroke: #000000" points="854.903,582.062 844.196,585.284 853.198,591.916 "/>
  </g>
  <g>
    <line style="fill: none; fill-opacity:0; stroke-width: 1; stroke: #000000" x1="934.481" y1="615.094" x2="845.298" y2="630.525"/>
    <polyline style="fill: none; fill-opacity:0; stroke-width: 1; stroke: #000000" points="853.198,624.084 844.196,630.716 854.903,633.938 "/>
  </g>
  <g>
    <line style="fill: none; fill-opacity:0; stroke-width: 1; stroke: #000000" x1="681.009" y1="742.912" x2="758.887" y2="728.906"/>
    <polyline style="fill: none; fill-opacity:0; stroke-width: 1; stroke: #000000" points="751.031,735.399 759.988,728.708 749.261,725.557 "/>
  </g>
  <g>
    <line style="fill: none; fill-opacity:0; stroke-width: 1; stroke: #000000" x1="749.03" y1="771.035" x2="683.206" y2="758.51"/>
    <polyline style="fill: none; fill-opacity:0; stroke-width: 1; stroke: #000000" points="692.867,755.258 682.108,758.301 690.997,765.082 "/>
  </g>
  <g>
    <line style="fill: none; fill-opacity:0; stroke-width: 1; stroke: #000000" x1="761.106" y1="570.408" x2="683.402" y2="556.019"/>
    <polyline style="fill: none; fill-opacity:0; stroke-width: 1; stroke: #000000" points="693.046,552.72 682.302,555.815 691.225,562.553 "/>
  </g>
  <g>
    <line style="fill: none; fill-opacity:0; stroke-width: 1; stroke: #000000" x1="767.908" y1="619.005" x2="676.246" y2="568.081"/>
    <polyline style="fill: none; fill-opacity:0; stroke-width: 1; stroke: #000000" points="686.439,568.024 675.269,567.538 681.582,576.766 "/>
  </g>
  <g>
    <line style="fill: none; fill-opacity:0; stroke-width: 1; stroke: #000000" x1="743.05" y1="476" x2="669.103" y2="527.717"/>
    <polyline style="fill: none; fill-opacity:0; stroke-width: 1; stroke: #000000" points="673.516,518.529 668.186,528.357 679.247,526.724 "/>
  </g>
  <g>
    <line style="fill: none; fill-opacity:0; stroke-width: 1; stroke: #000000" x1="753.9" y1="397.688" x2="655.814" y2="527.245"/>
    <polyline style="fill: none; fill-opacity:0; stroke-width: 1; stroke: #000000" points="657.189,517.145 655.139,528.136 665.161,523.181 "/>
  </g>
  <g>
    <line style="fill: none; fill-opacity:0; stroke-width: 1; stroke: #000000" x1="975.476" y1="590" x2="851.52" y2="399.562"/>
    <polyline style="fill: none; fill-opacity:0; stroke-width: 1; stroke: #000000" points="860.556,404.278 850.91,398.625 852.175,409.734 "/>
  </g>
  <g>
    <line style="fill: none; fill-opacity:0; stroke-width: 1; stroke: #000000" x1="830.881" y1="702.352" x2="944.82" y2="628.004"/>
    <polyline style="fill: none; fill-opacity:0; stroke-width: 1; stroke: #000000" points="940.114,637.045 945.756,627.393 934.649,628.67 "/>
  </g>
  <g>
    <line style="fill: none; fill-opacity:0; stroke-width: 1; stroke: #000000" x1="975.476" y1="626" x2="855.681" y2="761.459"/>
    <polyline style="fill: none; fill-opacity:0; stroke-width: 1; stroke: #000000" points="857.82,751.493 854.941,762.296 865.311,758.118 "/>
  </g>
  <g>
    <polyline style="fill: none; fill-opacity:0; stroke-width: 1; stroke: #000000" points="1051.95,378 1063.19,378 1063.19,781.134 857.442,781.134 "/>
    <polyline style="fill: none; fill-opacity:0; stroke-width: 1; stroke: #000000" points="866.324,776.134 856.324,781.134 866.324,786.134 "/>
  </g>
  <g>
    <line style="fill: none; fill-opacity:0; stroke-width: 1; stroke: #000000" x1="959.036" y1="589.019" x2="862.614" y2="477.69"/>
    <polyline style="fill: none; fill-opacity:0; stroke-width: 1; stroke: #000000" points="872.208,481.131 861.882,476.845 864.649,487.678 "/>
  </g>
  <g>
    <rect style="fill: #ffc0cb" x="750" y="763.134" width="104.2" height="36" rx="10" ry="10"/>
    <rect style="fill: none; fill-opacity:0; stroke-width: 2; stroke: #ff0000" x="750" y="763.134" width="104.2" height="36" rx="10" ry="10"/>
    <text font-size="12.8" style="fill: #000000;text-anchor:middle;font-family:sans-serif;font-style:normal;font-weight:normal" x="802.1" y="785.034">
      <tspan x="802.1" y="785.034">Kandidatuoja</tspan>
    </text>
  </g>
  <g>
    <rect style="fill: #ffc0cb" x="762.097" y="703.134" width="80" height="36" rx="10" ry="10"/>
    <rect style="fill: none; fill-opacity:0; stroke-width: 2; stroke: #ff0000" x="762.097" y="703.134" width="80" height="36" rx="10" ry="10"/>
    <text font-size="12.8" style="fill: #000000;text-anchor:middle;font-family:sans-serif;font-style:normal;font-weight:normal" x="802.097" y="725.034">
      <tspan x="802.097" y="725.034">Laimi</tspan>
    </text>
  </g>
  <g>
    <rect style="fill: #ffc0cb" x="743.05" y="440" width="118.1" height="36" rx="10" ry="10"/>
    <rect style="fill: none; fill-opacity:0; stroke-width: 2; stroke: #ff0000" x="743.05" y="440" width="118.1" height="36" rx="10" ry="10"/>
    <text font-size="12.8" style="fill: #000000;text-anchor:middle;font-family:sans-serif;font-style:normal;font-weight:normal" x="802.1" y="461.9">
      <tspan x="802.1" y="461.9">Teikia pastabas</tspan>
    </text>
  </g>
  <g>
    <rect style="fill: #ffc0cb" x="762.1" y="500" width="80" height="36" rx="10" ry="10"/>
    <rect style="fill: none; fill-opacity:0; stroke-width: 2; stroke: #ff0000" x="762.1" y="500" width="80" height="36" rx="10" ry="10"/>
    <text font-size="12.8" style="fill: #000000;text-anchor:middle;font-family:sans-serif;font-style:normal;font-weight:normal" x="802.1" y="521.9">
      <tspan x="802.1" y="521.9">Balsuoja</tspan>
    </text>
  </g>
  <g>
    <rect style="fill: #ffc0cb" x="762.1" y="560" width="80" height="36" rx="10" ry="10"/>
    <rect style="fill: none; fill-opacity:0; stroke-width: 2; stroke: #ff0000" x="762.1" y="560" width="80" height="36" rx="10" ry="10"/>
    <text font-size="12.8" style="fill: #000000;text-anchor:middle;font-family:sans-serif;font-style:normal;font-weight:normal" x="802.1" y="581.9">
      <tspan x="802.1" y="581.9">Pasisako</tspan>
    </text>
  </g>
  <g>
    <rect style="fill: #ffc0cb" x="762.1" y="620" width="80" height="36" rx="10" ry="10"/>
    <rect style="fill: none; fill-opacity:0; stroke-width: 2; stroke: #ff0000" x="762.1" y="620" width="80" height="36" rx="10" ry="10"/>
    <text font-size="12.8" style="fill: #000000;text-anchor:middle;font-family:sans-serif;font-style:normal;font-weight:normal" x="802.1" y="641.9">
      <tspan x="802.1" y="641.9">Veikia</tspan>
    </text>
  </g>
  <g>
    <rect style="fill: #ffffaf" x="320" y="530" width="90.95" height="36" rx="10" ry="10"/>
    <rect style="fill: none; fill-opacity:0; stroke-width: 2; stroke: #ffa500" x="320" y="530" width="90.95" height="36" rx="10" ry="10"/>
    <text font-size="12.8" style="fill: #000000;text-anchor:middle;font-family:sans-serif;font-style:normal;font-weight:normal" x="365.475" y="551.9">
      <tspan x="365.475" y="551.9">Visuomenė</tspan>
    </text>
  </g>
  <g>
    <rect style="fill: #90ee90" x="460" y="530" width="80" height="36" rx="10" ry="10"/>
    <rect style="fill: none; fill-opacity:0; stroke-width: 2; stroke: #008000" x="460" y="530" width="80" height="36" rx="10" ry="10"/>
    <text font-size="12.8" style="fill: #000000;text-anchor:middle;font-family:sans-serif;font-style:normal;font-weight:normal" x="500" y="551.9">
      <tspan x="500" y="551.9">Vertina</tspan>
    </text>
  </g>
  <g>
    <rect style="fill: #ffc0cb" x="600" y="530" width="80.2" height="36" rx="10" ry="10"/>
    <rect style="fill: none; fill-opacity:0; stroke-width: 2; stroke: #ff0000" x="600" y="530" width="80.2" height="36" rx="10" ry="10"/>
    <text font-size="12.8" style="fill: #000000;text-anchor:middle;font-family:sans-serif;font-style:normal;font-weight:normal" x="640.1" y="551.9">
      <tspan x="640.1" y="551.9">Veiksmas</tspan>
    </text>
  </g>
  <g>
    <rect style="fill: #90ee90" x="580" y="640" width="119.1" height="36" rx="10" ry="10"/>
    <rect style="fill: none; fill-opacity:0; stroke-width: 2; stroke: #008000" x="580" y="640" width="119.1" height="36" rx="10" ry="10"/>
    <text font-size="12.8" style="fill: #000000;text-anchor:middle;font-family:sans-serif;font-style:normal;font-weight:normal" x="639.55" y="661.9">
      <tspan x="639.55" y="661.9">Veiklos rodikliai</tspan>
    </text>
  </g>
  <g>
    <polyline style="fill: none; fill-opacity:0; stroke-width: 1; stroke: #000000" points="580,640 560,620 560,420 600.308,399.689 "/>
    <polyline style="fill: none; fill-opacity:0; stroke-width: 1; stroke: #000000" points="594.626,408.151 601.306,399.186 590.126,399.221 "/>
  </g>
  <g>
    <rect style="fill: #90ee90" x="460" y="640" width="80" height="36" rx="10" ry="10"/>
    <rect style="fill: none; fill-opacity:0; stroke-width: 2; stroke: #008000" x="460" y="640" width="80" height="36" rx="10" ry="10"/>
    <text font-size="12.8" style="fill: #000000;text-anchor:middle;font-family:sans-serif;font-style:normal;font-weight:normal" x="500" y="661.9">
      <tspan x="500" y="661.9">Rodo</tspan>
    </text>
  </g>
  <g>
    <line style="fill: none; fill-opacity:0; stroke-width: 1; stroke: #000000" x1="578.999" y1="658" x2="543.231" y2="658"/>
    <polyline style="fill: none; fill-opacity:0; stroke-width: 1; stroke: #000000" points="552.113,653 542.113,658 552.113,663 "/>
  </g>
  <g>
    <line style="fill: none; fill-opacity:0; stroke-width: 1; stroke: #000000" x1="476.813" y1="639.04" x2="390.393" y2="568.375"/>
    <polyline style="fill: none; fill-opacity:0; stroke-width: 1; stroke: #000000" points="400.434,570.127 389.528,567.668 394.104,577.869 "/>
  </g>
  <g>
    <line style="fill: none; fill-opacity:0; stroke-width: 1; stroke-dasharray: 4; stroke: #000000" x1="640.005" y1="566.96" x2="639.656" y2="636.804"/>
    <polyline style="fill: none; fill-opacity:0; stroke-width: 1; stroke: #000000" points="634.7,627.897 639.65,637.922 644.7,627.947 "/>
  </g>
  <text font-size="8.28604" style="fill: #000000;text-anchor:start;font-family:sans-serif;font-style:normal;font-weight:normal" x="771.325" y="605.856">
    <tspan x="771.325" y="605.856">(Stenogramos)</tspan>
  </text>
  <text font-size="8.28604" style="fill: #000000;text-anchor:start;font-family:sans-serif;font-style:normal;font-weight:normal" x="773.95" y="408.12">
    <tspan x="773.95" y="408.12">(Žiniasklaida)</tspan>
  </text>
  <text font-size="8.28604" style="fill: #000000;text-anchor:start;font-family:sans-serif;font-style:normal;font-weight:normal" x="774.875" y="665.542">
    <tspan x="774.875" y="665.542">(Teisės aktai)</tspan>
  </text>
  <g>
    <rect style="fill: #ffffaf" x="319.937" y="220.457" width="90.95" height="36" rx="10" ry="10"/>
    <rect style="fill: none; fill-opacity:0; stroke-width: 2; stroke: #ffa500" x="319.937" y="220.457" width="90.95" height="36" rx="10" ry="10"/>
    <text font-size="12.8" style="fill: #000000;text-anchor:middle;font-family:sans-serif;font-style:normal;font-weight:normal" x="365.412" y="242.357">
      <tspan x="365.412" y="242.357">Visuomenė</tspan>
    </text>
  </g>
  <g>
    <rect style="fill: #90ee90" x="581.497" y="220.457" width="117.1" height="36" rx="10" ry="10"/>
    <rect style="fill: none; fill-opacity:0; stroke-width: 2; stroke: #008000" x="581.497" y="220.457" width="117.1" height="36" rx="10" ry="10"/>
    <text font-size="12.8" style="fill: #000000;text-anchor:middle;font-family:sans-serif;font-style:normal;font-weight:normal" x="640.047" y="242.357">
      <tspan x="640.047" y="242.357">manopozicija.lt</tspan>
    </text>
  </g>
  <g>
    <rect style="fill: #ffc0cb" x="935.162" y="220.457" width="80" height="36" rx="10" ry="10"/>
    <rect style="fill: none; fill-opacity:0; stroke-width: 2; stroke: #ff0000" x="935.162" y="220.457" width="80" height="36" rx="10" ry="10"/>
    <text font-size="12.8" style="fill: #000000;text-anchor:middle;font-family:sans-serif;font-style:normal;font-weight:normal" x="975.162" y="242.357">
      <tspan x="975.162" y="242.357">Išrinktieji</tspan>
    </text>
  </g>
  <g>
    <line style="fill: none; fill-opacity:0; stroke-width: 1; stroke: #000000" x1="411.886" y1="238.457" x2="578.263" y2="238.457"/>
    <polyline style="fill: none; fill-opacity:0; stroke-width: 1; stroke: #000000" points="569.381,243.457 579.381,238.457 569.381,233.457 "/>
  </g>
  <g>
    <line style="fill: none; fill-opacity:0; stroke-width: 1; stroke: #000000" x1="699.282" y1="238.457" x2="931.927" y2="238.457"/>
    <polyline style="fill: none; fill-opacity:0; stroke-width: 1; stroke: #000000" points="923.045,243.457 933.045,238.457 923.045,233.457 "/>
  </g>
  <line style="fill: none; fill-opacity:0; stroke-width: 2; stroke: #000000" x1="320" y1="276" x2="1052" y2="276"/>
  <g>
    <rect style="fill: #90ee90" x="760" y="300" width="80" height="36" rx="10" ry="10"/>
    <rect style="fill: none; fill-opacity:0; stroke-width: 2; stroke: #008000" x="760" y="300" width="80" height="36" rx="10" ry="10"/>
    <text font-size="12.8" style="fill: #000000;text-anchor:middle;font-family:sans-serif;font-style:normal;font-weight:normal" x="800" y="321.9">
      <tspan x="800" y="321.9">Kuruoja</tspan>
    </text>
  </g>
  <g>
    <line style="fill: none; fill-opacity:0; stroke-width: 1; stroke: #000000" x1="759.023" y1="333.799" x2="683.063" y2="363.085"/>
    <polyline style="fill: none; fill-opacity:0; stroke-width: 1; stroke: #000000" points="689.552,355.225 682.02,363.487 693.149,364.555 "/>
  </g>
  <g>
    <line style="fill: none; fill-opacity:0; stroke-width: 1; stroke: #000000" x1="919.911" y1="359.001" x2="843.125" y2="332.746"/>
    <polyline style="fill: none; fill-opacity:0; stroke-width: 1; stroke: #000000" points="853.147,330.888 842.067,332.384 849.912,340.35 "/>
  </g>
  <g>
    <line style="fill: none; fill-opacity:0; stroke-width: 1; stroke: #000000" x1="759.023" y1="318" x2="683.213" y2="318"/>
    <polyline style="fill: none; fill-opacity:0; stroke-width: 1; stroke: #000000" points="692.095,313 682.095,318 692.095,323 "/>
  </g>
  <text font-size="8.28604" style="fill: #000000;text-anchor:start;font-family:sans-serif;font-style:normal;font-weight:normal" x="779.625" y="546.195">
    <tspan x="779.625" y="546.195">(Posėdžiai)</tspan>
  </text>
  <text font-size="8.28604" style="fill: #000000;text-anchor:start;font-family:sans-serif;font-style:normal;font-weight:normal" x="783.175" y="486.858">
    <tspan x="783.175" y="486.858">(Išvados)</tspan>
  </text>
  <text font-size="8.28604" style="fill: #000000;text-anchor:start;font-family:sans-serif;font-style:normal;font-weight:normal" x="602.575" y="686.612">
    <tspan x="602.575" y="686.612">(Atviri duomenys)</tspan>
  </text>
  <text font-size="8.28604" style="fill: #000000;text-anchor:start;font-family:sans-serif;font-style:normal;font-weight:normal" x="764.55" y="346.47">
    <tspan x="764.55" y="346.47">(Temų kuratoriai)</tspan>
  </text>
  <g>
    <line style="fill: none; fill-opacity:0; stroke-width: 1; stroke: #000000" x1="940.53" y1="396.951" x2="863.116" y2="438.934"/>
    <polyline style="fill: none; fill-opacity:0; stroke-width: 1; stroke: #000000" points="868.54,430.305 862.133,439.467 873.307,439.095 "/>
  </g>
  <text font-size="8.28604" style="fill: #000000;text-anchor:start;font-family:sans-serif;font-style:normal;font-weight:normal" x="761.072" y="748.088">
    <tspan x="761.072" y="748.088">(Rinkimų rezultatai)</tspan>
  </text>
  <text font-size="8.28604" style="fill: #000000;text-anchor:start;font-family:sans-serif;font-style:normal;font-weight:normal" x="761.7" y="808.273">
    <tspan x="761.7" y="808.273">(Kandidatų sąrašai)</tspan>
  </text>
</svg>
